<svg width="565" height="114" viewBox="0 0 565 114" fill="none" xmlns="http://www.w3.org/2000/svg">
<path d="M6.588 19.27C5.298 19.27 4.203 18.985 3.303 18.415C2.403 17.845 1.716 17.053 1.242 16.039C0.774 15.025 0.54 13.852 0.54 12.52C0.54 11.188 0.774 10.015 1.242 9.001C1.716 7.987 2.403 7.195 3.303 6.625C4.203 6.055 5.298 5.77 6.588 5.77C8.088 5.77 9.321 6.151 10.287 6.913C11.259 7.675 11.928 8.701 12.294 9.991L10.665 10.423C10.401 9.457 9.93 8.695 9.252 8.137C8.574 7.579 7.686 7.3 6.588 7.3C5.622 7.3 4.818 7.519 4.176 7.957C3.534 8.395 3.051 9.007 2.727 9.793C2.403 10.573 2.238 11.482 2.232 12.52C2.226 13.552 2.385 14.461 2.709 15.247C3.033 16.027 3.519 16.639 4.167 17.083C4.815 17.521 5.622 17.74 6.588 17.74C7.686 17.74 8.574 17.461 9.252 16.903C9.93 16.339 10.401 15.577 10.665 14.617L12.294 15.049C11.928 16.333 11.259 17.359 10.287 18.127C9.321 18.889 8.088 19.27 6.588 19.27ZM14.2678 19V9.28H15.6988V11.629L15.4648 11.323C15.5788 11.023 15.7258 10.747 15.9058 10.495C16.0918 10.243 16.2988 10.036 16.5268 9.874C16.7788 9.67 17.0638 9.514 17.3818 9.406C17.6998 9.298 18.0238 9.235 18.3538 9.217C18.6838 9.193 18.9928 9.214 19.2808 9.28V10.783C18.9448 10.693 18.5758 10.669 18.1738 10.711C17.7718 10.753 17.3998 10.9 17.0578 11.152C16.7458 11.374 16.5028 11.644 16.3288 11.962C16.1608 12.28 16.0438 12.625 15.9778 12.997C15.9118 13.363 15.8788 13.738 15.8788 14.122V19H14.2678ZM25.0189 19.27C24.0649 19.27 23.2309 19.06 22.5169 18.64C21.8089 18.214 21.2569 17.623 20.8609 16.867C20.4649 16.105 20.2669 15.217 20.2669 14.203C20.2669 13.141 20.4619 12.223 20.8519 11.449C21.2419 10.669 21.7849 10.069 22.4809 9.649C23.1829 9.223 24.0049 9.01 24.9469 9.01C25.9249 9.01 26.7559 9.235 27.4399 9.685C28.1299 10.135 28.6459 10.777 28.9879 11.611C29.3359 12.445 29.4859 13.438 29.4379 14.59H27.8179V14.014C27.7999 12.82 27.5569 11.929 27.0889 11.341C26.6209 10.747 25.9249 10.45 25.0009 10.45C24.0109 10.45 23.2579 10.768 22.7419 11.404C22.2259 12.04 21.9679 12.952 21.9679 14.14C21.9679 15.286 22.2259 16.174 22.7419 16.804C23.2579 17.434 23.9929 17.749 24.9469 17.749C25.5889 17.749 26.1469 17.602 26.6209 17.308C27.0949 17.014 27.4669 16.591 27.7369 16.039L29.2759 16.57C28.8979 17.428 28.3279 18.094 27.5659 18.568C26.8099 19.036 25.9609 19.27 25.0189 19.27ZM21.4279 14.59V13.303H28.6099V14.59H21.4279ZM34.0289 19.27C33.3029 19.27 32.6939 19.138 32.2019 18.874C31.7159 18.604 31.3469 18.25 31.0949 17.812C30.8489 17.374 30.7259 16.894 30.7259 16.372C30.7259 15.862 30.8219 15.421 31.0139 15.049C31.2119 14.671 31.4879 14.359 31.8419 14.113C32.1959 13.861 32.6189 13.663 33.1109 13.519C33.5729 13.393 34.0889 13.285 34.6589 13.195C35.2349 13.099 35.8169 13.012 36.4049 12.934C36.9929 12.856 37.5419 12.781 38.0519 12.709L37.4759 13.042C37.4939 12.178 37.3199 11.539 36.9539 11.125C36.5939 10.711 35.9699 10.504 35.0819 10.504C34.4939 10.504 33.9779 10.639 33.5339 10.909C33.0959 11.173 32.7869 11.605 32.6069 12.205L31.0859 11.746C31.3199 10.894 31.7729 10.225 32.4449 9.739C33.1169 9.253 34.0019 9.01 35.0999 9.01C35.9819 9.01 36.7379 9.169 37.3679 9.487C38.0039 9.799 38.4599 10.273 38.7359 10.909C38.8739 11.209 38.9609 11.536 38.9969 11.89C39.0329 12.238 39.0509 12.604 39.0509 12.988V19H37.6289V16.669L37.9619 16.885C37.5959 17.671 37.0829 18.265 36.4229 18.667C35.7689 19.069 34.9709 19.27 34.0289 19.27ZM34.2719 17.929C34.8479 17.929 35.3459 17.827 35.7659 17.623C36.1919 17.413 36.5339 17.14 36.7919 16.804C37.0499 16.462 37.2179 16.09 37.2959 15.688C37.3859 15.388 37.4339 15.055 37.4399 14.689C37.4519 14.317 37.4579 14.032 37.4579 13.834L38.0159 14.077C37.4939 14.149 36.9809 14.218 36.4769 14.284C35.9729 14.35 35.4959 14.422 35.0459 14.5C34.5959 14.572 34.1909 14.659 33.8309 14.761C33.5669 14.845 33.3179 14.953 33.0839 15.085C32.8559 15.217 32.6699 15.388 32.5259 15.598C32.3879 15.802 32.3189 16.057 32.3189 16.363C32.3189 16.627 32.3849 16.879 32.5169 17.119C32.6549 17.359 32.8649 17.554 33.1469 17.704C33.4349 17.854 33.8099 17.929 34.2719 17.929ZM46.8179 19C46.2419 19.114 45.6719 19.159 45.1079 19.135C44.5499 19.117 44.0519 19.006 43.6139 18.802C43.1759 18.592 42.8429 18.268 42.6149 17.83C42.4229 17.446 42.3179 17.059 42.2999 16.669C42.2879 16.273 42.2819 15.826 42.2819 15.328V6.58H43.8839V15.256C43.8839 15.652 43.8869 15.991 43.8929 16.273C43.9049 16.555 43.9679 16.798 44.0819 17.002C44.2979 17.386 44.6399 17.611 45.1079 17.677C45.5819 17.743 46.1519 17.725 46.8179 17.623V19ZM40.3109 10.603V9.28H46.8179V10.603H40.3109ZM52.599 19.27C51.645 19.27 50.811 19.06 50.097 18.64C49.389 18.214 48.837 17.623 48.441 16.867C48.045 16.105 47.847 15.217 47.847 14.203C47.847 13.141 48.042 12.223 48.432 11.449C48.822 10.669 49.365 10.069 50.061 9.649C50.763 9.223 51.585 9.01 52.527 9.01C53.505 9.01 54.336 9.235 55.02 9.685C55.71 10.135 56.226 10.777 56.568 11.611C56.916 12.445 57.066 13.438 57.018 14.59H55.398V14.014C55.38 12.82 55.137 11.929 54.669 11.341C54.201 10.747 53.505 10.45 52.581 10.45C51.591 10.45 50.838 10.768 50.322 11.404C49.806 12.04 49.548 12.952 49.548 14.14C49.548 15.286 49.806 16.174 50.322 16.804C50.838 17.434 51.573 17.749 52.527 17.749C53.169 17.749 53.727 17.602 54.201 17.308C54.675 17.014 55.047 16.591 55.317 16.039L56.856 16.57C56.478 17.428 55.908 18.094 55.146 18.568C54.39 19.036 53.541 19.27 52.599 19.27ZM49.008 14.59V13.303H56.19V14.59H49.008ZM61.7252 19L66.0632 6.04H68.2952L72.6332 19H70.9682L66.9092 6.976H67.4132L63.3902 19H61.7252ZM63.8132 15.967V14.464H70.5452V15.967H63.8132ZM78.3394 19.27C77.3554 19.27 76.5184 19.051 75.8284 18.613C75.1444 18.169 74.6224 17.56 74.2624 16.786C73.9024 16.012 73.7164 15.13 73.7044 14.14C73.7164 13.126 73.9054 12.235 74.2714 11.467C74.6434 10.693 75.1744 10.09 75.8644 9.658C76.5544 9.226 77.3854 9.01 78.3574 9.01C79.3834 9.01 80.2654 9.262 81.0034 9.766C81.7474 10.27 82.2454 10.96 82.4974 11.836L80.9134 12.313C80.7094 11.749 80.3764 11.311 79.9144 10.999C79.4584 10.687 78.9334 10.531 78.3394 10.531C77.6734 10.531 77.1244 10.687 76.6924 10.999C76.2604 11.305 75.9394 11.731 75.7294 12.277C75.5194 12.817 75.4114 13.438 75.4054 14.14C75.4174 15.22 75.6664 16.093 76.1524 16.759C76.6444 17.419 77.3734 17.749 78.3394 17.749C78.9754 17.749 79.5034 17.605 79.9234 17.317C80.3434 17.023 80.6614 16.6 80.8774 16.048L82.4974 16.471C82.1614 17.377 81.6364 18.07 80.9224 18.55C80.2084 19.03 79.3474 19.27 78.3394 19.27ZM88.1655 19.27C87.1815 19.27 86.3445 19.051 85.6545 18.613C84.9705 18.169 84.4485 17.56 84.0885 16.786C83.7285 16.012 83.5425 15.13 83.5305 14.14C83.5425 13.126 83.7315 12.235 84.0975 11.467C84.4695 10.693 85.0005 10.09 85.6905 9.658C86.3805 9.226 87.2115 9.01 88.1835 9.01C89.2095 9.01 90.0915 9.262 90.8295 9.766C91.5735 10.27 92.0715 10.96 92.3235 11.836L90.7395 12.313C90.5355 11.749 90.2025 11.311 89.7405 10.999C89.2845 10.687 88.7595 10.531 88.1655 10.531C87.4995 10.531 86.9505 10.687 86.5185 10.999C86.0865 11.305 85.7655 11.731 85.5555 12.277C85.3455 12.817 85.2375 13.438 85.2315 14.14C85.2435 15.22 85.4925 16.093 85.9785 16.759C86.4705 17.419 87.1995 17.749 88.1655 17.749C88.8015 17.749 89.3295 17.605 89.7495 17.317C90.1695 17.023 90.4875 16.6 90.7035 16.048L92.3235 16.471C91.9875 17.377 91.4625 18.07 90.7485 18.55C90.0345 19.03 89.1735 19.27 88.1655 19.27ZM98.0367 19.27C97.0707 19.27 96.2367 19.051 95.5347 18.613C94.8387 18.175 94.3017 17.569 93.9237 16.795C93.5457 16.021 93.3567 15.133 93.3567 14.131C93.3567 13.111 93.5487 12.217 93.9327 11.449C94.3167 10.681 94.8597 10.084 95.5617 9.658C96.2637 9.226 97.0887 9.01 98.0367 9.01C99.0087 9.01 99.8457 9.229 100.548 9.667C101.25 10.099 101.787 10.702 102.159 11.476C102.537 12.244 102.726 13.129 102.726 14.131C102.726 15.145 102.537 16.039 102.159 16.813C101.781 17.581 101.241 18.184 100.539 18.622C99.8367 19.054 99.0027 19.27 98.0367 19.27ZM98.0367 17.749C99.0447 17.749 99.7947 17.413 100.287 16.741C100.779 16.069 101.025 15.199 101.025 14.131C101.025 13.033 100.776 12.16 100.278 11.512C99.7797 10.858 99.0327 10.531 98.0367 10.531C97.3587 10.531 96.8007 10.684 96.3627 10.99C95.9247 11.296 95.5977 11.719 95.3817 12.259C95.1657 12.799 95.0577 13.423 95.0577 14.131C95.0577 15.223 95.3097 16.099 95.8137 16.759C96.3177 17.419 97.0587 17.749 98.0367 17.749ZM108.397 19.252C107.773 19.252 107.236 19.153 106.786 18.955C106.342 18.757 105.973 18.493 105.679 18.163C105.385 17.833 105.154 17.467 104.986 17.065C104.818 16.663 104.698 16.252 104.626 15.832C104.56 15.412 104.527 15.019 104.527 14.653V9.28H106.147V14.149C106.147 14.605 106.189 15.046 106.273 15.472C106.357 15.898 106.498 16.282 106.696 16.624C106.9 16.966 107.17 17.236 107.506 17.434C107.848 17.632 108.274 17.731 108.784 17.731C109.186 17.731 109.552 17.662 109.882 17.524C110.212 17.386 110.494 17.182 110.728 16.912C110.962 16.636 111.142 16.288 111.268 15.868C111.394 15.448 111.457 14.959 111.457 14.401L112.51 14.725C112.51 15.661 112.339 16.468 111.997 17.146C111.661 17.824 111.184 18.346 110.566 18.712C109.954 19.072 109.231 19.252 108.397 19.252ZM111.637 19V16.399H111.457V9.28H113.068V19H111.637ZM122.509 19V14.131C122.509 13.669 122.467 13.225 122.383 12.799C122.305 12.373 122.164 11.992 121.96 11.656C121.762 11.314 121.492 11.044 121.15 10.846C120.814 10.648 120.388 10.549 119.872 10.549C119.47 10.549 119.104 10.618 118.774 10.756C118.45 10.888 118.171 11.092 117.937 11.368C117.703 11.644 117.52 11.992 117.388 12.412C117.262 12.826 117.199 13.315 117.199 13.879L116.146 13.555C116.146 12.613 116.314 11.806 116.65 11.134C116.992 10.456 117.469 9.937 118.081 9.577C118.699 9.211 119.425 9.028 120.259 9.028C120.889 9.028 121.426 9.127 121.87 9.325C122.314 9.523 122.683 9.787 122.977 10.117C123.271 10.441 123.502 10.807 123.67 11.215C123.838 11.617 123.955 12.028 124.021 12.448C124.093 12.862 124.129 13.255 124.129 13.627V19H122.509ZM115.579 19V9.28H117.019V11.881H117.199V19H115.579ZM131.896 19C131.32 19.114 130.75 19.159 130.186 19.135C129.628 19.117 129.13 19.006 128.692 18.802C128.254 18.592 127.921 18.268 127.693 17.83C127.501 17.446 127.396 17.059 127.378 16.669C127.366 16.273 127.36 15.826 127.36 15.328V6.58H128.962V15.256C128.962 15.652 128.965 15.991 128.971 16.273C128.983 16.555 129.046 16.798 129.16 17.002C129.376 17.386 129.718 17.611 130.186 17.677C130.66 17.743 131.23 17.725 131.896 17.623V19ZM125.389 10.603V9.28H131.896V10.603H125.389Z" fill="#6A6A6A"/>
<circle cx="65.5" cy="74.5" r="36.75" stroke="#413091" stroke-width="1.5"/>
<path d="M84.75 63.5834L59.75 88.5834L48.2917 77.125L51.2292 74.1875L59.75 82.6875L81.8125 60.6459L84.75 63.5834Z" fill="#413091"/>
<path d="M237.586 19L233.5 6.04H235.732L239.152 16.894L242.617 6.04H244.849L240.763 19H237.586ZM249.548 19.27C248.564 19.27 247.7 19.057 246.956 18.631C246.212 18.205 245.63 17.614 245.21 16.858C244.796 16.102 244.589 15.232 244.589 14.248C244.589 13.186 244.793 12.265 245.201 11.485C245.609 10.699 246.176 10.09 246.902 9.658C247.628 9.226 248.468 9.01 249.422 9.01C250.43 9.01 251.285 9.247 251.987 9.721C252.695 10.189 253.22 10.852 253.562 11.71C253.904 12.568 254.033 13.579 253.949 14.743H251.798V13.951C251.792 12.895 251.606 12.124 251.24 11.638C250.874 11.152 250.298 10.909 249.512 10.909C248.624 10.909 247.964 11.185 247.532 11.737C247.1 12.283 246.884 13.084 246.884 14.14C246.884 15.124 247.1 15.886 247.532 16.426C247.964 16.966 248.594 17.236 249.422 17.236C249.956 17.236 250.415 17.119 250.799 16.885C251.189 16.645 251.489 16.3 251.699 15.85L253.841 16.498C253.469 17.374 252.893 18.055 252.113 18.541C251.339 19.027 250.484 19.27 249.548 19.27ZM246.2 14.743V13.105H252.887V14.743H246.2ZM255.957 19V9.28H257.874V11.647L257.64 11.341C257.76 11.017 257.919 10.723 258.117 10.459C258.321 10.189 258.564 9.967 258.846 9.793C259.086 9.631 259.35 9.505 259.638 9.415C259.932 9.319 260.232 9.262 260.538 9.244C260.844 9.22 261.141 9.232 261.429 9.28V11.305C261.141 11.221 260.808 11.194 260.43 11.224C260.058 11.254 259.722 11.359 259.422 11.539C259.122 11.701 258.876 11.908 258.684 12.16C258.498 12.412 258.36 12.7 258.27 13.024C258.18 13.342 258.135 13.687 258.135 14.059V19H255.957ZM263.327 7.804V5.815H265.496V7.804H263.327ZM263.327 19V9.28H265.496V19H263.327ZM269.038 19V9.127C269.038 8.881 269.047 8.611 269.065 8.317C269.083 8.017 269.134 7.72 269.218 7.426C269.302 7.132 269.455 6.865 269.677 6.625C269.953 6.319 270.25 6.109 270.568 5.995C270.892 5.875 271.21 5.809 271.522 5.797C271.834 5.779 272.107 5.77 272.341 5.77H273.556V7.534H272.431C272.017 7.534 271.708 7.639 271.504 7.849C271.306 8.053 271.207 8.323 271.207 8.659V19H269.038ZM267.472 10.981V9.28H273.556V10.981H267.472ZM276.272 23.32L278.144 18.181L278.18 19.693L273.941 9.28H276.2L279.206 16.984H278.63L281.555 9.28H283.724L278.306 23.32H276.272ZM288.67 19V6.04H297.04V8.074H290.839V11.269H295.96V13.303H290.839V16.966H297.04V19H288.67ZM310.872 19V13.096C310.872 12.43 310.707 11.911 310.377 11.539C310.047 11.161 309.6 10.972 309.036 10.972C308.688 10.972 308.376 11.053 308.1 11.215C307.824 11.371 307.605 11.605 307.443 11.917C307.281 12.223 307.2 12.589 307.2 13.015L306.237 12.448C306.231 11.776 306.381 11.185 306.687 10.675C306.999 10.159 307.419 9.757 307.947 9.469C308.475 9.181 309.063 9.037 309.711 9.037C310.785 9.037 311.607 9.361 312.177 10.009C312.753 10.651 313.041 11.497 313.041 12.547V19H310.872ZM299.181 19V9.28H301.098V12.295H301.368V19H299.181ZM305.04 19V13.123C305.04 12.445 304.875 11.917 304.545 11.539C304.215 11.161 303.765 10.972 303.195 10.972C302.643 10.972 302.199 11.161 301.863 11.539C301.533 11.917 301.368 12.409 301.368 13.015L300.396 12.367C300.396 11.737 300.552 11.17 300.864 10.666C301.176 10.162 301.596 9.766 302.124 9.478C302.658 9.184 303.255 9.037 303.915 9.037C304.641 9.037 305.247 9.193 305.733 9.505C306.225 9.811 306.591 10.231 306.831 10.765C307.077 11.293 307.2 11.89 307.2 12.556V19H305.04ZM318.107 19.27C317.405 19.27 316.811 19.138 316.325 18.874C315.839 18.604 315.47 18.247 315.218 17.803C314.972 17.359 314.849 16.87 314.849 16.336C314.849 15.868 314.927 15.448 315.083 15.076C315.239 14.698 315.479 14.374 315.803 14.104C316.127 13.828 316.547 13.603 317.063 13.429C317.453 13.303 317.909 13.189 318.431 13.087C318.959 12.985 319.529 12.892 320.141 12.808C320.759 12.718 321.404 12.622 322.076 12.52L321.302 12.961C321.308 12.289 321.158 11.794 320.852 11.476C320.546 11.158 320.03 10.999 319.304 10.999C318.866 10.999 318.443 11.101 318.035 11.305C317.627 11.509 317.342 11.86 317.18 12.358L315.2 11.737C315.44 10.915 315.896 10.255 316.568 9.757C317.246 9.259 318.158 9.01 319.304 9.01C320.168 9.01 320.927 9.151 321.581 9.433C322.241 9.715 322.73 10.177 323.048 10.819C323.222 11.161 323.327 11.512 323.363 11.872C323.399 12.226 323.417 12.613 323.417 13.033V19H321.518V16.894L321.833 17.236C321.395 17.938 320.882 18.454 320.294 18.784C319.712 19.108 318.983 19.27 318.107 19.27ZM318.539 17.542C319.031 17.542 319.451 17.455 319.799 17.281C320.147 17.107 320.423 16.894 320.627 16.642C320.837 16.39 320.978 16.153 321.05 15.931C321.164 15.655 321.227 15.34 321.239 14.986C321.257 14.626 321.266 14.335 321.266 14.113L321.932 14.311C321.278 14.413 320.717 14.503 320.249 14.581C319.781 14.659 319.379 14.734 319.043 14.806C318.707 14.872 318.41 14.947 318.152 15.031C317.9 15.121 317.687 15.226 317.513 15.346C317.339 15.466 317.204 15.604 317.108 15.76C317.018 15.916 316.973 16.099 316.973 16.309C316.973 16.549 317.033 16.762 317.153 16.948C317.273 17.128 317.447 17.272 317.675 17.38C317.909 17.488 318.197 17.542 318.539 17.542ZM325.94 7.804V5.815H328.109V7.804H325.94ZM325.94 19V9.28H328.109V19H325.94ZM330.985 19V5.77H333.154V19H330.985Z" fill="#6A6A6A"/>
<path d="M304.833 61.5C304.833 59.2084 302.958 57.3334 300.667 57.3334H267.333C265.042 57.3334 263.167 59.2084 263.167 61.5V86.5C263.167 88.7917 265.042 90.6667 267.333 90.6667H300.667C302.958 90.6667 304.833 88.7917 304.833 86.5V61.5ZM300.667 61.5L284 71.9167L267.333 61.5H300.667ZM300.667 86.5H267.333V65.6667L284 76.0834L300.667 65.6667V86.5Z" fill="#413091"/>
<circle cx="283.5" cy="74.5" r="37.5" stroke="#413091" stroke-width="4"/>
<path d="M438.749 19V6.04H446.309V7.642H440.351V11.719H445.229V13.321H440.351V19H438.749ZM448.105 7.561V5.905H449.707V7.561H448.105ZM448.105 19V9.28H449.707V19H448.105ZM459.328 19V14.131C459.328 13.669 459.286 13.225 459.202 12.799C459.124 12.373 458.983 11.992 458.779 11.656C458.581 11.314 458.311 11.044 457.969 10.846C457.633 10.648 457.207 10.549 456.691 10.549C456.289 10.549 455.923 10.618 455.593 10.756C455.269 10.888 454.99 11.092 454.756 11.368C454.522 11.644 454.339 11.992 454.207 12.412C454.081 12.826 454.018 13.315 454.018 13.879L452.965 13.555C452.965 12.613 453.133 11.806 453.469 11.134C453.811 10.456 454.288 9.937 454.9 9.577C455.518 9.211 456.244 9.028 457.078 9.028C457.708 9.028 458.245 9.127 458.689 9.325C459.133 9.523 459.502 9.787 459.796 10.117C460.09 10.441 460.321 10.807 460.489 11.215C460.657 11.617 460.774 12.028 460.84 12.448C460.912 12.862 460.948 13.255 460.948 13.627V19H459.328ZM452.398 19V9.28H453.838V11.881H454.018V19H452.398ZM467.016 19.27C466.11 19.27 465.333 19.045 464.685 18.595C464.037 18.139 463.536 17.524 463.182 16.75C462.834 15.976 462.66 15.103 462.66 14.131C462.66 13.159 462.834 12.286 463.182 11.512C463.536 10.738 464.037 10.129 464.685 9.685C465.333 9.235 466.107 9.01 467.007 9.01C467.925 9.01 468.696 9.232 469.32 9.676C469.944 10.12 470.415 10.729 470.733 11.503C471.057 12.277 471.219 13.153 471.219 14.131C471.219 15.097 471.057 15.97 470.733 16.75C470.415 17.524 469.944 18.139 469.32 18.595C468.696 19.045 467.928 19.27 467.016 19.27ZM467.214 17.803C467.868 17.803 468.405 17.647 468.825 17.335C469.245 17.017 469.554 16.582 469.752 16.03C469.956 15.472 470.058 14.839 470.058 14.131C470.058 13.411 469.956 12.778 469.752 12.232C469.554 11.68 469.248 11.251 468.834 10.945C468.42 10.633 467.895 10.477 467.259 10.477C466.599 10.477 466.053 10.639 465.621 10.963C465.195 11.287 464.877 11.725 464.667 12.277C464.463 12.829 464.361 13.447 464.361 14.131C464.361 14.821 464.466 15.445 464.676 16.003C464.886 16.555 465.201 16.993 465.621 17.317C466.047 17.641 466.578 17.803 467.214 17.803ZM470.058 19V11.845H469.878V6.04H471.489V19H470.058ZM478.964 23.32L480.845 18.208L480.872 19.72L476.624 9.28H478.307L481.637 17.677H481.061L484.184 9.28H485.813L480.521 23.32H478.964ZM491.088 19.27C490.122 19.27 489.288 19.051 488.586 18.613C487.89 18.175 487.353 17.569 486.975 16.795C486.597 16.021 486.408 15.133 486.408 14.131C486.408 13.111 486.6 12.217 486.984 11.449C487.368 10.681 487.911 10.084 488.613 9.658C489.315 9.226 490.14 9.01 491.088 9.01C492.06 9.01 492.897 9.229 493.599 9.667C494.301 10.099 494.838 10.702 495.21 11.476C495.588 12.244 495.777 13.129 495.777 14.131C495.777 15.145 495.588 16.039 495.21 16.813C494.832 17.581 494.292 18.184 493.59 18.622C492.888 19.054 492.054 19.27 491.088 19.27ZM491.088 17.749C492.096 17.749 492.846 17.413 493.338 16.741C493.83 16.069 494.076 15.199 494.076 14.131C494.076 13.033 493.827 12.16 493.329 11.512C492.831 10.858 492.084 10.531 491.088 10.531C490.41 10.531 489.852 10.684 489.414 10.99C488.976 11.296 488.649 11.719 488.433 12.259C488.217 12.799 488.109 13.423 488.109 14.131C488.109 15.223 488.361 16.099 488.865 16.759C489.369 17.419 490.11 17.749 491.088 17.749ZM501.449 19.252C500.825 19.252 500.288 19.153 499.838 18.955C499.394 18.757 499.025 18.493 498.731 18.163C498.437 17.833 498.206 17.467 498.038 17.065C497.87 16.663 497.75 16.252 497.678 15.832C497.612 15.412 497.579 15.019 497.579 14.653V9.28H499.199V14.149C499.199 14.605 499.241 15.046 499.325 15.472C499.409 15.898 499.55 16.282 499.748 16.624C499.952 16.966 500.222 17.236 500.558 17.434C500.9 17.632 501.326 17.731 501.836 17.731C502.238 17.731 502.604 17.662 502.934 17.524C503.264 17.386 503.546 17.182 503.78 16.912C504.014 16.636 504.194 16.288 504.32 15.868C504.446 15.448 504.509 14.959 504.509 14.401L505.562 14.725C505.562 15.661 505.391 16.468 505.049 17.146C504.713 17.824 504.236 18.346 503.618 18.712C503.006 19.072 502.283 19.252 501.449 19.252ZM504.689 19V16.399H504.509V9.28H506.12V19H504.689ZM508.64 19V9.28H510.071V11.629L509.837 11.323C509.951 11.023 510.098 10.747 510.278 10.495C510.464 10.243 510.671 10.036 510.899 9.874C511.151 9.67 511.436 9.514 511.754 9.406C512.072 9.298 512.396 9.235 512.726 9.217C513.056 9.193 513.365 9.214 513.653 9.28V10.783C513.317 10.693 512.948 10.669 512.546 10.711C512.144 10.753 511.772 10.9 511.43 11.152C511.118 11.374 510.875 11.644 510.701 11.962C510.533 12.28 510.416 12.625 510.35 12.997C510.284 13.363 510.251 13.738 510.251 14.122V19H508.64ZM525.879 19V14.131C525.879 13.669 525.837 13.225 525.753 12.799C525.675 12.373 525.534 11.992 525.33 11.656C525.132 11.314 524.862 11.044 524.52 10.846C524.184 10.648 523.758 10.549 523.242 10.549C522.84 10.549 522.474 10.618 522.144 10.756C521.82 10.888 521.541 11.092 521.307 11.368C521.073 11.644 520.89 11.992 520.758 12.412C520.632 12.826 520.569 13.315 520.569 13.879L519.516 13.555C519.516 12.613 519.684 11.806 520.02 11.134C520.362 10.456 520.839 9.937 521.451 9.577C522.069 9.211 522.795 9.028 523.629 9.028C524.259 9.028 524.796 9.127 525.24 9.325C525.684 9.523 526.053 9.787 526.347 10.117C526.641 10.441 526.872 10.807 527.04 11.215C527.208 11.617 527.325 12.028 527.391 12.448C527.463 12.862 527.499 13.255 527.499 13.627V19H525.879ZM518.949 19V6.04H520.389V13.195H520.569V19H518.949ZM533.979 19.27C533.013 19.27 532.179 19.051 531.477 18.613C530.781 18.175 530.244 17.569 529.866 16.795C529.488 16.021 529.299 15.133 529.299 14.131C529.299 13.111 529.491 12.217 529.875 11.449C530.259 10.681 530.802 10.084 531.504 9.658C532.206 9.226 533.031 9.01 533.979 9.01C534.951 9.01 535.788 9.229 536.49 9.667C537.192 10.099 537.729 10.702 538.101 11.476C538.479 12.244 538.668 13.129 538.668 14.131C538.668 15.145 538.479 16.039 538.101 16.813C537.723 17.581 537.183 18.184 536.481 18.622C535.779 19.054 534.945 19.27 533.979 19.27ZM533.979 17.749C534.987 17.749 535.737 17.413 536.229 16.741C536.721 16.069 536.967 15.199 536.967 14.131C536.967 13.033 536.718 12.16 536.22 11.512C535.722 10.858 534.975 10.531 533.979 10.531C533.301 10.531 532.743 10.684 532.305 10.99C531.867 11.296 531.54 11.719 531.324 12.259C531.108 12.799 531 13.423 531 14.131C531 15.223 531.252 16.099 531.756 16.759C532.26 17.419 533.001 17.749 533.979 17.749ZM552.269 19L552.278 12.781C552.278 12.055 552.083 11.488 551.693 11.08C551.309 10.666 550.808 10.459 550.19 10.459C549.83 10.459 549.488 10.543 549.164 10.711C548.84 10.873 548.576 11.131 548.372 11.485C548.168 11.833 548.066 12.28 548.066 12.826L547.22 12.484C547.208 11.794 547.349 11.191 547.643 10.675C547.943 10.153 548.351 9.748 548.867 9.46C549.383 9.172 549.965 9.028 550.613 9.028C551.627 9.028 552.425 9.337 553.007 9.955C553.589 10.567 553.88 11.392 553.88 12.43L553.871 19H552.269ZM540.641 19V9.28H542.072V11.881H542.252V19H540.641ZM546.464 19L546.473 12.844C546.473 12.1 546.281 11.518 545.897 11.098C545.513 10.672 545.003 10.459 544.367 10.459C543.737 10.459 543.227 10.675 542.837 11.107C542.447 11.539 542.252 12.112 542.252 12.826L541.406 12.322C541.406 11.692 541.556 11.128 541.856 10.63C542.156 10.132 542.564 9.742 543.08 9.46C543.596 9.172 544.181 9.028 544.835 9.028C545.489 9.028 546.059 9.166 546.545 9.442C547.031 9.718 547.406 10.114 547.67 10.63C547.934 11.14 548.066 11.749 548.066 12.457L548.057 19H546.464ZM560.348 19.27C559.394 19.27 558.56 19.06 557.846 18.64C557.138 18.214 556.586 17.623 556.19 16.867C555.794 16.105 555.596 15.217 555.596 14.203C555.596 13.141 555.791 12.223 556.181 11.449C556.571 10.669 557.114 10.069 557.81 9.649C558.512 9.223 559.334 9.01 560.276 9.01C561.254 9.01 562.085 9.235 562.769 9.685C563.459 10.135 563.975 10.777 564.317 11.611C564.665 12.445 564.815 13.438 564.767 14.59H563.147V14.014C563.129 12.82 562.886 11.929 562.418 11.341C561.95 10.747 561.254 10.45 560.33 10.45C559.34 10.45 558.587 10.768 558.071 11.404C557.555 12.04 557.297 12.952 557.297 14.14C557.297 15.286 557.555 16.174 558.071 16.804C558.587 17.434 559.322 17.749 560.276 17.749C560.918 17.749 561.476 17.602 561.95 17.308C562.424 17.014 562.796 16.591 563.066 16.039L564.605 16.57C564.227 17.428 563.657 18.094 562.895 18.568C562.139 19.036 561.29 19.27 560.348 19.27ZM556.757 14.59V13.303H563.939V14.59H556.757Z" fill="#6A6A6A"/>
<circle cx="501.5" cy="74.5" r="37.5" stroke="#413091" stroke-width="1.5"/>
<path d="M502 50.5625C489.056 50.5625 478.562 61.0559 478.562 74C478.562 86.9441 489.056 97.4375 502 97.4375C514.944 97.4375 525.438 86.9441 525.438 74C525.438 61.0559 514.944 50.5625 502 50.5625ZM516.363 88.3631C512.802 91.9139 508.046 94.0116 503.022 94.2475C497.998 94.4833 493.067 92.8404 489.188 89.6388C485.31 86.4372 482.762 81.9063 482.042 76.9289C481.322 71.9516 482.48 66.8844 485.292 62.7146C488.104 58.5449 492.367 55.5713 497.252 54.3733C502.136 53.1753 507.292 53.8386 511.714 56.2342C516.136 58.6297 519.507 62.5858 521.172 67.3315C522.836 72.0773 522.674 77.2727 520.717 81.9056C519.698 84.3196 518.219 86.5127 516.363 88.3631Z" fill="#413091"/>
<path d="M491.844 68.5312H495.75V72.4375H491.844V68.5312ZM508.25 68.5312H512.156V72.4375H508.25V68.5312ZM510.036 79C509.432 80.5252 508.382 81.8329 507.023 82.7527C505.665 83.6724 504.061 84.1615 502.42 84.1562H501.58C499.939 84.1616 498.335 83.6725 496.977 82.7528C495.618 81.833 494.568 80.5252 493.964 79L493.839 78.6875H490.473L491.063 80.1603C491.903 82.2623 493.355 84.0642 495.229 85.3335C497.104 86.6028 499.316 87.2812 501.58 87.2812H502.42C504.684 87.2812 506.896 86.6028 508.771 85.3335C510.645 84.0642 512.097 82.2623 512.938 80.1603L513.527 78.6875H510.161L510.036 79Z" fill="#413091"/>
<rect x="103" y="74" width="141" height="2" fill="#413091"/>
<rect x="323" y="73" width="141" height="2" fill="#413091"/>
</svg>
