<svg width="381" height="112" viewBox="0 0 381 112" fill="none" xmlns="http://www.w3.org/2000/svg">
<path d="M46.2786 29.8529C46.2786 34.3203 44.9781 38.3483 42.3772 41.7904C39.7761 45.2325 36.525 47.6493 32.6235 49.0408L44.1833 65.2261H40.7876L29.9503 49.7732C28.9388 49.9929 27.7106 50.1394 26.2656 50.1394C23.5924 50.1394 20.9915 49.6267 18.4628 48.5282L19.402 46.1114C21.7862 47.0635 24.0981 47.5761 26.2656 47.5761C31.323 47.5761 35.4413 45.8184 38.6924 42.2299C41.9436 38.6413 43.6053 34.54 43.6053 29.8529C43.6053 24.7996 41.8714 20.5519 38.4757 17.183C35.08 13.8141 30.9618 12.1297 26.2656 12.1297C21.5694 12.1297 17.5235 13.8874 14.0556 17.476C10.6599 21.0646 8.92588 25.1658 8.92588 29.9261V65.2261H6.25269V29.8529C6.25269 24.0672 8.27567 19.3069 12.3216 15.4254C16.3675 11.5439 20.9915 9.56648 26.2656 9.56648C31.901 9.56648 36.6695 11.6171 40.4987 15.6451C44.3279 19.6731 46.2786 24.4334 46.2786 29.8529ZM97.6633 41.9369H67.4636V39.3004H94.485C93.3291 35.4921 91.0888 32.4162 87.8381 30.0726C84.5866 27.6558 80.974 26.484 77.1449 26.484C72.4487 26.484 68.2583 28.315 64.5014 32.05C60.8167 35.7118 58.9382 40.0327 58.9382 44.9396C58.9382 49.9929 60.7444 54.3138 64.2846 57.9757C67.8248 61.5642 72.1598 63.3951 77.1449 63.3951C82.5635 63.3951 87.1149 61.3445 90.7276 57.17L92.6059 58.9277C87.9821 63.6148 82.8523 65.9584 77.1449 65.9584C71.4372 65.9584 66.5966 63.9078 62.4784 59.7333C58.4325 55.5588 56.4092 50.652 56.4092 44.9396C56.4092 39.1539 58.4325 34.1739 62.4784 30.0726C66.5243 25.9714 71.4372 23.9208 77.1449 23.9208C82.2747 23.9208 86.7538 25.6052 90.6552 29.0473C94.5566 32.4894 96.8685 36.7371 97.6633 41.9369ZM151.085 44.7931V65.2261H148.412V44.7931C148.412 39.7398 146.606 35.4189 142.993 31.8303C139.381 28.1684 135.118 26.3376 130.133 26.3376C125.22 26.3376 120.957 28.1684 117.345 31.8303C113.732 35.4189 111.926 39.7398 111.926 44.7931V65.2261H109.253V44.7931C109.253 39.0074 111.276 34.1006 115.394 29.9994C119.512 25.8249 124.425 23.7743 130.133 23.7743C135.84 23.7743 140.754 25.8249 144.871 29.9994C148.989 34.1006 151.085 39.0074 151.085 44.7931ZM184.989 63.3951V65.9584C179.28 65.9584 174.368 63.9078 170.322 59.8066C166.276 55.7053 164.181 50.7252 164.108 44.9396V8.39465H166.781V24.5067H175.451V27.1431H166.781V45.0129C166.781 50.0661 168.66 54.3871 172.345 57.9757C176.101 61.5642 180.292 63.3951 184.989 63.3951ZM220.078 62.0036L221.089 64.3472C218.488 65.4457 215.814 66.0316 212.997 66.0316C207.506 66.0316 202.665 64.0542 198.474 60.0263C194.285 55.9983 192.189 50.945 192.189 44.9396C192.189 39.2272 194.213 34.3203 198.186 30.1458C202.232 25.9714 207.145 23.8476 212.997 23.8476C218.56 23.8476 223.401 25.8249 227.519 29.8529C231.71 33.8809 233.805 38.861 233.805 44.9396V65.2261H231.276V44.4269C231.276 39.4468 229.398 35.1992 225.713 31.6839C222.029 28.1684 217.838 26.4108 212.997 26.4108C208.156 26.4108 203.894 28.1685 200.209 31.7571C196.524 35.2724 194.718 39.6666 194.718 44.9396C194.718 49.8464 196.452 54.1673 199.92 57.9024C203.46 61.6374 207.795 63.4684 212.997 63.4684C215.382 63.4684 217.765 62.9557 220.078 62.0036ZM250.987 8.39465V65.2261H248.241V8.39465H250.987ZM305.844 29.8529C305.844 35.6386 303.821 40.4721 299.702 44.3537C295.657 48.2352 291.033 50.1394 285.831 50.1394C283.158 50.1394 280.556 49.6267 278.028 48.5282L278.968 46.1114C281.351 47.0635 283.663 47.5761 285.831 47.5761C290.888 47.5761 295.006 45.8184 298.258 42.2299C301.509 38.6413 303.171 34.54 303.171 29.8529C303.171 24.7996 301.437 20.5519 298.041 17.183C294.645 13.8141 290.527 12.1297 285.831 12.1297C281.135 12.1297 277.088 13.8874 273.621 17.476C270.225 21.0646 268.491 25.1658 268.491 29.9261V65.2261H265.818V29.8529C265.818 24.0672 267.841 19.3069 271.887 15.4254C275.932 11.5439 280.556 9.56648 285.831 9.56648C291.466 9.56648 296.235 11.6171 300.063 15.6451C303.893 19.6731 305.844 24.4334 305.844 29.8529ZM342.733 62.0036L343.745 64.3472C341.144 65.4457 338.471 66.0316 335.653 66.0316C330.162 66.0316 325.322 64.0542 321.131 60.0263C316.941 55.9983 314.846 50.945 314.846 44.9396C314.846 39.2272 316.869 34.3203 320.842 30.1458C324.888 25.9714 329.801 23.8476 335.653 23.8476C341.216 23.8476 346.057 25.8249 350.175 29.8529C354.366 33.8809 356.461 38.861 356.461 44.9396V65.2261H353.932V44.4269C353.932 39.4468 352.054 35.1992 348.369 31.6839C344.684 28.1684 340.494 26.4108 335.653 26.4108C330.812 26.4108 326.55 28.1685 322.865 31.7571C319.181 35.2724 317.374 39.6666 317.374 44.9396C317.374 49.8464 319.108 54.1673 322.576 57.9024C326.116 61.6374 330.451 63.4684 335.653 63.4684C338.038 63.4684 340.421 62.9557 342.733 62.0036ZM373.643 8.39465V65.2261H370.897V8.39465H373.643Z" fill="#413091"/>
<path d="M32.6235 49.0409L32.1551 47.6916L30.3719 48.3276L31.4805 49.8797L32.6235 49.0409ZM44.1833 65.2261V66.6565H46.9471L45.3263 64.3873L44.1833 65.2261ZM40.7876 65.2261L39.6375 66.0552L40.0594 66.6565H40.7876V65.2261ZM29.9503 49.7732L31.1004 48.9445L30.5624 48.1773L29.6546 48.3746L29.9503 49.7732ZM18.4627 48.5282L17.1498 48.0039L16.6477 49.2959L17.9069 49.843L18.4627 48.5282ZM19.4019 46.1114L19.9192 44.7806L18.6062 44.2563L18.0891 45.5871L19.4019 46.1114ZM14.0555 17.4761L13.0475 16.4751L13.0423 16.4804L13.0372 16.4859L14.0555 17.4761ZM8.92587 65.2261V66.6565H10.3369V65.2261H8.92587ZM6.25265 65.2261H4.84155V66.6565H6.25265V65.2261ZM44.8674 29.853C44.8674 34.0219 43.6599 37.7406 41.2568 40.9207L43.4974 42.6603C46.2963 38.9562 47.6897 34.6189 47.6897 29.853H44.8674ZM41.2568 40.9207C38.8166 44.1501 35.7887 46.3956 32.1551 47.6916L33.0919 50.3902C37.2611 48.9032 40.7357 46.3151 43.4974 42.6603L41.2568 40.9207ZM31.4805 49.8797L43.0403 66.0649L45.3263 64.3873L33.7665 48.2021L31.4805 49.8797ZM44.1833 63.7957H40.7876V66.6565H44.1833V63.7957ZM41.9378 64.397L31.1004 48.9445L28.8002 50.602L39.6375 66.0552L41.9378 64.397ZM29.6546 48.3746C28.7457 48.572 27.6169 48.709 26.2656 48.709V51.5698C27.8043 51.5698 29.1319 51.4139 30.2459 51.1719L29.6546 48.3746ZM26.2656 48.709C23.7763 48.709 21.3651 48.2329 19.0186 47.2134L17.9069 49.843C20.6177 51.0207 23.4085 51.5698 26.2656 51.5698V48.709ZM19.7756 49.0525L20.7148 46.6357L18.0891 45.5871L17.1498 48.0039L19.7756 49.0525ZM18.8848 47.4422C21.3925 48.4437 23.8816 49.0065 26.2656 49.0065V46.1457C24.3146 46.1457 22.1798 45.6833 19.9192 44.7806L18.8848 47.4422ZM26.2656 49.0065C31.6904 49.0065 36.1951 47.1011 39.7317 43.1974L37.6531 41.2624C34.6873 44.5359 30.9557 46.1457 26.2656 46.1457V49.0065ZM39.7317 43.1974C43.2041 39.3647 45.0165 34.9243 45.0165 29.853H42.1943C42.1943 34.1559 40.6831 37.9179 37.6531 41.2624L39.7317 43.1974ZM45.0165 29.853C45.0165 24.4315 43.141 19.8101 39.4627 16.1608L37.4887 18.2054C40.6017 21.2939 42.1943 25.1678 42.1943 29.853H45.0165ZM39.4627 16.1608C35.8022 12.5293 31.3293 10.6994 26.2656 10.6994V13.5602C30.5943 13.5602 34.3577 15.0992 37.4887 18.2054L39.4627 16.1608ZM26.2656 10.6994C21.1716 10.6994 16.7676 12.6256 13.0475 16.4751L15.0636 18.4769C18.2794 15.1494 21.9673 13.5602 26.2656 13.5602V10.6994ZM13.0372 16.4859C9.41188 20.3171 7.51476 24.7652 7.51476 29.9262H10.3369C10.3369 25.5664 11.9078 21.8121 15.0739 18.4662L13.0372 16.4859ZM7.51476 29.9262V65.2261H10.3369V29.9262H7.51476ZM8.92587 63.7957H6.25265V66.6565H8.92587V63.7957ZM7.66377 65.2261V29.853H4.84155V65.2261H7.66377ZM7.66377 29.853C7.66377 24.4552 9.5309 20.0721 13.2916 16.4643L11.3516 14.3866C7.02035 18.5418 4.84155 23.6795 4.84155 29.853H7.66377ZM13.2916 16.4643C17.0988 12.8118 21.3831 10.9969 26.2656 10.9969V8.13611C20.5997 8.13611 15.6363 10.276 11.3516 14.3866L13.2916 16.4643ZM26.2656 10.9969C31.523 10.9969 35.923 12.8933 39.4825 16.6377L41.5147 14.6527C37.4159 10.341 32.279 8.13611 26.2656 8.13611V10.9969ZM39.4825 16.6377C43.0702 20.4115 44.8674 24.8206 44.8674 29.853H47.6897C47.6897 24.0463 45.5855 18.9347 41.5147 14.6527L39.4825 16.6377ZM97.6633 41.9369V43.3674H99.31L99.0577 41.718L97.6633 41.9369ZM67.4635 41.9369H66.0525V43.3674H67.4635V41.9369ZM67.4635 39.3005V37.87H66.0525V39.3005H67.4635ZM94.485 39.3005V40.7309H96.3946L95.833 38.8798L94.485 39.3005ZM87.8381 30.0727L87.0029 31.2262L87.0113 31.2324L87.0197 31.2384L87.8381 30.0727ZM64.2846 57.9757L63.2765 58.977L63.2816 58.9821L63.2866 58.9873L64.2846 57.9757ZM90.7276 57.1701L91.6846 56.1191L90.6209 55.124L89.6669 56.2268L90.7276 57.1701ZM92.6059 58.9278L93.6033 59.9393L94.642 58.8865L93.563 57.8767L92.6059 58.9278ZM62.4784 59.7333L61.4714 60.7358L61.4759 60.7403L61.4804 60.745L62.4784 59.7333ZM97.6633 40.5066H67.4635V43.3674H97.6633V40.5066ZM68.8747 41.9369V39.3005H66.0525V41.9369H68.8747ZM67.4635 40.7309H94.485V37.87H67.4635V40.7309ZM95.833 38.8798C94.5825 34.7585 92.1487 31.4254 88.6549 28.9069L87.0197 31.2384C90.028 33.4071 92.0748 36.2259 93.1355 39.7211L95.833 38.8798ZM88.6717 28.9192C85.1794 26.3234 81.2757 25.0537 77.1449 25.0537V27.9145C80.6722 27.9145 83.993 28.9883 87.0029 31.2262L88.6717 28.9192ZM77.1449 25.0537C72.0372 25.0537 67.502 27.0629 63.513 31.0289L65.4891 33.0715C69.0141 29.5673 72.8597 27.9145 77.1449 27.9145V25.0537ZM63.513 31.0289C59.5805 34.9369 57.5271 39.6172 57.5271 44.9396H60.3493C60.3493 40.4484 62.0522 36.487 65.4891 33.0715L63.513 31.0289ZM57.5271 44.9396C57.5271 50.3837 59.4891 55.0596 63.2765 58.977L65.2922 56.9745C61.9992 53.5682 60.3493 49.6021 60.3493 44.9396H57.5271ZM63.2866 58.9873C67.0893 62.8419 71.7821 64.8256 77.1449 64.8256V61.9648C72.5368 61.9648 68.5597 60.2866 65.2819 56.9642L63.2866 58.9873ZM77.1449 64.8256C82.9651 64.8256 87.9051 62.601 91.7883 58.1136L89.6669 56.2268C86.3247 60.0881 82.1619 61.9648 77.1449 61.9648V64.8256ZM89.7705 58.2212L91.6488 59.9788L93.563 57.8767L91.6846 56.1191L89.7705 58.2212ZM91.6084 57.9162C87.2048 62.3796 82.4202 64.528 77.1449 64.528V67.3888C83.2843 67.3888 88.7586 64.8502 93.6033 59.9393L91.6084 57.9162ZM77.1449 64.528C71.8188 64.528 67.3348 62.6337 63.4758 58.7218L61.4804 60.745C65.8577 65.182 71.0551 67.3888 77.1449 67.3888V64.528ZM63.4848 58.731C59.6889 54.8147 57.8206 50.2643 57.8206 44.9396H54.9981C54.9981 51.0398 57.1754 56.3031 61.4714 60.7358L63.4848 58.731ZM57.8206 44.9396C57.8206 39.5317 59.6956 34.9159 63.4758 31.0841L61.4804 29.0612C57.1686 33.4319 54.9981 38.7762 54.9981 44.9396H57.8206ZM63.4758 31.0841C67.2558 27.2523 71.8098 25.3512 77.1449 25.3512V22.4904C71.0641 22.4904 65.7923 24.6906 61.4804 29.0612L63.4758 31.0841ZM77.1449 25.3512C81.9356 25.3512 86.0855 26.9117 89.7286 30.1263L91.5818 27.9684C87.422 24.2988 82.613 22.4904 77.1449 22.4904V25.3512ZM89.7286 30.1263C93.3786 33.3464 95.5251 37.2892 96.2688 42.156L99.0577 41.718C98.2119 36.1852 95.7347 31.6326 91.5818 27.9684L89.7286 30.1263ZM151.085 65.2261V66.6565H152.496V65.2261H151.085ZM148.412 65.2261H147V66.6565H148.412V65.2261ZM142.993 31.8304L141.995 32.8418L142 32.8469L142.005 32.852L142.993 31.8304ZM117.345 31.8304L118.332 32.852L118.337 32.8469L118.342 32.8418L117.345 31.8304ZM111.926 65.2261V66.6565H113.337V65.2261H111.926ZM109.253 65.2261H107.841V66.6565H109.253V65.2261ZM115.394 29.9994L116.383 31.0198L116.387 31.0154L116.391 31.0109L115.394 29.9994ZM144.871 29.9994L143.873 31.0109L143.878 31.0154L143.882 31.0198L144.871 29.9994ZM149.674 44.7932V65.2261H152.496V44.7932H149.674ZM151.085 63.7957H148.412V66.6565H151.085V63.7957ZM149.823 65.2261V44.7932H147V65.2261H149.823ZM149.823 44.7932C149.823 39.3492 147.859 34.6619 143.98 30.8088L142.005 32.852C145.352 36.176 147 40.1306 147 44.7932H149.823ZM143.991 30.8189C140.123 26.8985 135.505 24.9072 130.133 24.9072V27.768C134.73 27.768 138.638 29.4386 141.995 32.8418L143.991 30.8189ZM130.133 24.9072C124.829 24.9072 120.212 26.9007 116.347 30.8189L118.342 32.8418C121.701 29.4363 125.61 27.768 130.133 27.768V24.9072ZM116.357 30.8088C112.478 34.6619 110.515 39.3492 110.515 44.7932H113.337C113.337 40.1306 114.986 36.176 118.332 32.852L116.357 30.8088ZM110.515 44.7932V65.2261H113.337V44.7932H110.515ZM111.926 63.7957H109.253V66.6565H111.926V63.7957ZM110.664 65.2261V44.7932H107.841V65.2261H110.664ZM110.664 44.7932C110.664 39.3924 112.534 34.8529 116.383 31.0198L114.404 28.9792C110.017 33.3485 107.841 38.6226 107.841 44.7932H110.664ZM116.391 31.0109C120.247 27.1031 124.801 25.2048 130.133 25.2048V22.344C124.048 22.344 118.778 24.5468 114.396 28.988L116.391 31.0109ZM130.133 25.2048C135.464 25.2048 140.018 27.1031 143.873 31.0109L145.869 28.988C141.487 24.5468 136.216 22.344 130.133 22.344V25.2048ZM143.882 31.0198C147.74 34.8621 149.674 39.4053 149.674 44.7932H152.496C152.496 38.6097 150.238 33.3393 145.861 28.9792L143.882 31.0198ZM184.988 63.3952H186.399V61.9648H184.988V63.3952ZM184.988 65.9585V67.3888H186.399V65.9585H184.988ZM164.108 44.9396H162.697V44.9487V44.9577L164.108 44.9396ZM164.108 8.39471V6.96436H162.697V8.39471H164.108ZM166.781 8.39471H168.192V6.96436H166.781V8.39471ZM166.781 24.5067H165.37V25.9372H166.781V24.5067ZM175.451 24.5067H176.863V23.0764H175.451V24.5067ZM175.451 27.1432V28.5736H176.863V27.1432H175.451ZM166.781 27.1432V25.7128H165.37V27.1432H166.781ZM172.345 57.9757L171.366 59.0073L171.372 59.0119L171.377 59.0165L172.345 57.9757ZM183.577 63.3952V65.9585H186.399V63.3952H183.577ZM184.988 64.528C179.653 64.528 175.099 62.6268 171.319 58.795L169.324 60.8182C173.635 65.1889 178.908 67.3888 184.988 67.3888V64.528ZM171.319 58.795C167.53 54.9544 165.586 50.3294 165.519 44.9215L162.697 44.9577C162.774 51.1212 165.021 56.4563 169.324 60.8182L171.319 58.795ZM165.519 44.9396V8.39471H162.697V44.9396H165.519ZM164.108 9.82514H166.781V6.96436H164.108V9.82514ZM165.37 8.39471V24.5067H168.192V8.39471H165.37ZM166.781 25.9372H175.451V23.0764H166.781V25.9372ZM174.04 24.5067V27.1432H176.863V24.5067H174.04ZM175.451 25.7128H166.781V28.5736H175.451V25.7128ZM165.37 27.1432V45.0129H168.192V27.1432H165.37ZM165.37 45.0129C165.37 50.4736 167.418 55.1617 171.366 59.0073L173.322 56.9442C169.901 53.6125 168.192 49.6588 168.192 45.0129H165.37ZM171.377 59.0165C175.359 62.8208 179.885 64.8256 184.988 64.8256V61.9648C180.698 61.9648 176.843 60.3078 173.312 56.9347L171.377 59.0165ZM220.078 62.0037L221.37 61.4304L220.819 60.1545L219.546 60.6785L220.078 62.0037ZM221.089 64.3473L221.632 65.6678L222.957 65.1076L222.381 63.7739L221.089 64.3473ZM198.186 30.1459L197.179 29.1434L197.174 29.1481L197.17 29.1527L198.186 30.1459ZM227.519 29.853L226.54 30.8823L226.543 30.8866L226.548 30.891L227.519 29.853ZM233.804 65.2261V66.6565H235.216V65.2261H233.804ZM231.276 65.2261H229.865V66.6565H231.276V65.2261ZM200.209 31.7571L201.176 32.7987L201.181 32.7937L201.186 32.7886L200.209 31.7571ZM199.92 57.9025L198.892 58.8826L198.897 58.8883L198.903 58.8934L199.92 57.9025ZM218.784 62.577L219.796 64.9206L222.381 63.7739L221.37 61.4304L218.784 62.577ZM220.546 63.0267C218.103 64.0589 215.614 64.6013 212.997 64.6013V67.4621C216.015 67.4621 218.872 66.8327 221.632 65.6678L220.546 63.0267ZM212.997 64.6013C207.881 64.6013 203.384 62.7744 199.446 58.9884L197.504 61.0642C201.946 65.3342 207.131 67.4621 212.997 67.4621V64.6013ZM199.446 58.9884C195.546 55.2401 193.601 50.5667 193.601 44.9396H190.778C190.778 51.3233 193.022 56.7565 197.504 61.0642L199.446 58.9884ZM193.601 44.9396C193.601 39.6132 195.471 35.0583 199.201 31.1391L197.17 29.1527C192.954 33.5825 190.778 38.8413 190.778 44.9396H193.601ZM199.192 31.1484C202.975 27.2454 207.526 25.278 212.997 25.278V22.4172C206.763 22.4172 201.488 24.6975 197.179 29.1434L199.192 31.1484ZM212.997 25.278C218.19 25.278 222.68 27.108 226.54 30.8823L228.499 28.8237C224.121 24.5419 218.93 22.4172 212.997 22.4172V25.278ZM226.548 30.891C230.449 34.641 232.393 39.2421 232.393 44.9396H235.216C235.216 38.48 232.969 33.1209 228.49 28.815L226.548 30.891ZM232.393 44.9396V65.2261H235.216V44.9396H232.393ZM233.804 63.7957H231.276V66.6565H233.804V63.7957ZM232.687 65.2261V44.427H229.865V65.2261H232.687ZM232.687 44.427C232.687 39.032 230.632 34.4135 226.68 30.6422L224.745 32.7255C228.162 35.9849 229.865 39.8618 229.865 44.427H232.687ZM226.68 30.6422C222.751 26.894 218.22 24.9804 212.997 24.9804V27.8412C217.454 27.8412 221.305 29.4431 224.745 32.7255L226.68 30.6422ZM212.997 24.9804C207.777 24.9804 203.168 26.8915 199.231 30.7257L201.186 32.7886C204.619 29.4455 208.535 27.8412 212.997 27.8412V24.9804ZM199.242 30.7155C195.259 34.5145 193.307 39.2922 193.307 44.9396H196.129C196.129 40.041 197.789 36.0304 201.176 32.7987L199.242 30.7155ZM193.307 44.9396C193.307 50.2286 195.19 54.8957 198.892 58.8826L200.947 56.9221C197.714 53.4391 196.129 49.4643 196.129 44.9396H193.307ZM198.903 58.8934C202.717 62.918 207.423 64.8988 212.997 64.8988V62.038C208.167 62.038 204.203 60.357 200.937 56.9114L198.903 58.8934ZM212.997 64.8988C215.582 64.8988 218.146 64.3426 220.608 63.3288L219.546 60.6785C217.384 61.5688 215.18 62.038 212.997 62.038V64.8988ZM250.987 8.39471H252.397V6.96436H250.987V8.39471ZM250.987 65.2261V66.6565H252.397V65.2261H250.987ZM248.241 65.2261H246.83V66.6565H248.241V65.2261ZM248.241 8.39471V6.96436H246.83V8.39471H248.241ZM249.576 8.39471V65.2261H252.397V8.39471H249.576ZM250.987 63.7957H248.241V66.6565H250.987V63.7957ZM249.652 65.2261V8.39471H246.83V65.2261H249.652ZM248.241 9.82514H250.987V6.96436H248.241V9.82514ZM299.702 44.3537L298.742 43.3063L298.738 43.3105L298.733 43.3149L299.702 44.3537ZM278.028 48.5282L276.715 48.0039L276.213 49.2959L277.472 49.843L278.028 48.5282ZM278.967 46.1114L279.485 44.7806L278.172 44.2563L277.655 45.5871L278.967 46.1114ZM273.621 17.4761L272.613 16.4751L272.608 16.4804L272.602 16.4859L273.621 17.4761ZM268.491 65.2261V66.6565H269.902V65.2261H268.491ZM265.818 65.2261H264.406V66.6565H265.818V65.2261ZM304.433 29.853C304.433 35.2547 302.563 39.7044 298.742 43.3063L300.664 45.4013C305.079 41.2401 307.255 36.0226 307.255 29.853H304.433ZM298.733 43.3149C294.934 46.9597 290.652 48.709 285.831 48.709V51.5698C291.414 51.5698 296.38 49.5108 300.673 45.3926L298.733 43.3149ZM285.831 48.709C283.341 48.709 280.931 48.2329 278.584 47.2134L277.472 49.843C280.183 51.0207 282.974 51.5698 285.831 51.5698V48.709ZM279.342 49.0525L280.28 46.6357L277.655 45.5871L276.715 48.0039L279.342 49.0525ZM278.45 47.4422C280.958 48.4437 283.447 49.0065 285.831 49.0065V46.1457C283.88 46.1457 281.745 45.6833 279.485 44.7806L278.45 47.4422ZM285.831 49.0065C291.255 49.0065 295.76 47.1011 299.297 43.1974L297.218 41.2624C294.252 44.5359 290.521 46.1457 285.831 46.1457V49.0065ZM299.297 43.1974C302.77 39.3647 304.582 34.9243 304.582 29.853H301.76C301.76 34.1559 300.249 37.9179 297.218 41.2624L299.297 43.1974ZM304.582 29.853C304.582 24.4315 302.707 19.8101 299.028 16.1608L297.054 18.2054C300.167 21.2939 301.76 25.1678 301.76 29.853H304.582ZM299.028 16.1608C295.367 12.5293 290.895 10.6994 285.831 10.6994V13.5602C290.16 13.5602 293.923 15.0992 297.054 18.2054L299.028 16.1608ZM285.831 10.6994C280.737 10.6994 276.332 12.6256 272.613 16.4751L274.629 18.4769C277.845 15.1494 281.532 13.5602 285.831 13.5602V10.6994ZM272.602 16.4859C268.977 20.3171 267.079 24.7652 267.079 29.9262H269.902C269.902 25.5664 271.473 21.8121 274.639 18.4662L272.602 16.4859ZM267.079 29.9262V65.2261H269.902V29.9262H267.079ZM268.491 63.7957H265.818V66.6565H268.491V63.7957ZM267.229 65.2261V29.853H264.406V65.2261H267.229ZM267.229 29.853C267.229 24.4552 269.096 20.0721 272.857 16.4643L270.917 14.3866C266.586 18.5418 264.406 23.6795 264.406 29.853H267.229ZM272.857 16.4643C276.664 12.8118 280.949 10.9969 285.831 10.9969V8.13611C280.165 8.13611 275.202 10.276 270.917 14.3866L272.857 16.4643ZM285.831 10.9969C291.089 10.9969 295.488 12.8933 299.048 16.6377L301.08 14.6527C296.981 10.341 291.844 8.13611 285.831 8.13611V10.9969ZM299.048 16.6377C302.635 20.4115 304.433 24.8206 304.433 29.853H307.255C307.255 24.0463 305.151 18.9347 301.08 14.6527L299.048 16.6377ZM342.733 62.0037L344.026 61.4304L343.476 60.1545L342.203 60.6785L342.733 62.0037ZM343.745 64.3473L344.288 65.6678L345.614 65.1076L345.038 63.7739L343.745 64.3473ZM320.842 30.1459L319.836 29.1434L319.831 29.1481L319.827 29.1527L320.842 30.1459ZM350.175 29.853L349.196 30.8823L349.199 30.8866L349.204 30.891L350.175 29.853ZM356.461 65.2261V66.6565H357.872V65.2261H356.461ZM353.932 65.2261H352.521V66.6565H353.932V65.2261ZM322.865 31.7571L323.832 32.7987L323.838 32.7937L323.843 32.7886L322.865 31.7571ZM322.576 57.9025L321.549 58.8826L321.554 58.8883L321.559 58.8934L322.576 57.9025ZM341.441 62.577L342.453 64.9206L345.038 63.7739L344.026 61.4304L341.441 62.577ZM343.203 63.0267C340.76 64.0589 338.27 64.6013 335.653 64.6013V67.4621C338.672 67.4621 341.529 66.8327 344.288 65.6678L343.203 63.0267ZM335.653 64.6013C330.537 64.6013 326.041 62.7744 322.103 58.9884L320.16 61.0642C324.603 65.3342 329.788 67.4621 335.653 67.4621V64.6013ZM322.103 58.9884C318.203 55.2401 316.257 50.5667 316.257 44.9396H313.434C313.434 51.3233 315.679 56.7565 320.16 61.0642L322.103 58.9884ZM316.257 44.9396C316.257 39.6132 318.127 35.0583 321.858 31.1391L319.827 29.1527C315.611 33.5825 313.434 38.8413 313.434 44.9396H316.257ZM321.849 31.1484C325.632 27.2454 330.183 25.278 335.653 25.278V22.4172C329.419 22.4172 324.145 24.6975 319.836 29.1434L321.849 31.1484ZM335.653 25.278C340.846 25.278 345.337 27.108 349.196 30.8823L351.155 28.8237C346.778 24.5419 341.587 22.4172 335.653 22.4172V25.278ZM349.204 30.891C353.105 34.641 355.049 39.2421 355.049 44.9396H357.872C357.872 38.48 355.626 33.1209 351.146 28.815L349.204 30.891ZM355.049 44.9396V65.2261H357.872V44.9396H355.049ZM356.461 63.7957H353.932V66.6565H356.461V63.7957ZM355.343 65.2261V44.427H352.521V65.2261H355.343ZM355.343 44.427C355.343 39.032 353.289 34.4135 349.337 30.6422L347.402 32.7255C350.819 35.9849 352.521 39.8618 352.521 44.427H355.343ZM349.337 30.6422C345.407 26.894 340.877 24.9804 335.653 24.9804V27.8412C340.111 27.8412 343.961 29.4431 347.402 32.7255L349.337 30.6422ZM335.653 24.9804C330.434 24.9804 325.824 26.8915 321.887 30.7257L323.843 32.7886C327.276 29.4455 331.192 27.8412 335.653 27.8412V24.9804ZM321.898 30.7155C317.916 34.5145 315.963 39.2922 315.963 44.9396H318.785C318.785 40.041 320.445 36.0304 323.832 32.7987L321.898 30.7155ZM315.963 44.9396C315.963 50.2286 317.846 54.8957 321.549 58.8826L323.604 56.9221C320.37 53.4391 318.785 49.4643 318.785 44.9396H315.963ZM321.559 58.8934C325.373 62.918 330.079 64.8988 335.653 64.8988V62.038C330.824 62.038 326.86 60.357 323.594 56.9114L321.559 58.8934ZM335.653 64.8988C338.239 64.8988 340.803 64.3426 343.264 63.3288L342.203 60.6785C340.04 61.5688 337.837 62.038 335.653 62.038V64.8988ZM373.643 8.39471H375.054V6.96436H373.643V8.39471ZM373.643 65.2261V66.6565H375.054V65.2261H373.643ZM370.897 65.2261H369.486V66.6565H370.897V65.2261ZM370.897 8.39471V6.96436H369.486V8.39471H370.897ZM372.232 8.39471V65.2261H375.054V8.39471H372.232ZM373.643 63.7957H370.897V66.6565H373.643V63.7957ZM372.309 65.2261V8.39471H369.486V65.2261H372.309ZM370.897 9.82514H373.643V6.96436H370.897V9.82514Z" fill="#413091"/>
<path d="M57.1951 105.821V90.2489H58.0912V97.5806H67.3937V90.2489H68.2898V105.821H67.3937V98.489H58.0912V105.821H57.1951ZM76.3364 106.145C75.1988 106.145 74.2387 105.882 73.4564 105.356C72.6741 104.83 72.0802 104.101 71.6748 103.171C71.2694 102.241 71.0667 101.171 71.0667 99.9596C71.0667 98.7338 71.273 97.6602 71.6855 96.7371C72.098 95.8141 72.6954 95.0973 73.4777 94.5852C74.2671 94.0731 75.2202 93.8174 76.3364 93.8174C77.4817 93.8174 78.4456 94.0808 79.2275 94.6068C80.01 95.1259 80.6006 95.8465 80.9983 96.7696C81.4037 97.6926 81.6064 98.7554 81.6064 99.9596C81.6064 101.192 81.4037 102.274 80.9983 103.204C80.593 104.127 79.9956 104.847 79.2061 105.367C78.4243 105.886 77.4672 106.145 76.3364 106.145ZM76.3364 105.237C77.7873 105.237 78.8686 104.75 79.5795 103.777C80.2912 102.797 80.6463 101.524 80.6463 99.9596C80.6463 98.3662 80.2874 97.0978 79.5688 96.1532C78.8579 95.2016 77.7804 94.7258 76.3364 94.7258C75.3624 94.7258 74.5552 94.949 73.9151 95.3962C73.2822 95.8434 72.8092 96.4598 72.4963 97.2454C72.1834 98.0309 72.0269 98.9362 72.0269 99.9596C72.0269 101.545 72.3896 102.821 73.115 103.788C73.8476 104.754 74.9215 105.237 76.3364 105.237ZM98.0618 105.821L98.0832 97.7753C98.0832 96.802 97.802 96.0381 97.2404 95.4827C96.678 94.9204 95.9846 94.6393 95.1601 94.6393C94.7044 94.6393 94.2427 94.7435 93.7733 94.9529C93.3107 95.1622 92.9198 95.5152 92.5998 96.0126C92.2866 96.51 92.1304 97.1913 92.1304 98.0564H91.341C91.3052 97.1983 91.4507 96.4521 91.7784 95.818C92.1121 95.1838 92.5785 94.6933 93.1759 94.3473C93.7733 93.9943 94.456 93.8174 95.2241 93.8174C96.3123 93.8174 97.2084 94.1634 97.9125 94.8555C98.6234 95.5476 98.9793 96.4992 98.9793 97.7104L98.9579 105.821H98.0618ZM84.3854 105.821V94.1418H85.2175V96.5209H85.2816V105.821H84.3854ZM91.2343 105.821L91.2556 97.9266C91.2556 96.9171 90.9783 96.1169 90.4235 95.526C89.8756 94.9351 89.1647 94.6393 88.2899 94.6393C87.3938 94.6393 86.6684 94.949 86.1137 95.5692C85.5589 96.1895 85.2816 97.0183 85.2816 98.0564L84.4921 97.7104C84.4921 96.9604 84.659 96.2938 84.9935 95.7098C85.3273 95.1189 85.786 94.657 86.3697 94.3257C86.9595 93.9866 87.6354 93.8174 88.3966 93.8174C89.0435 93.8174 89.6516 93.958 90.2208 94.2391C90.7893 94.5133 91.248 94.942 91.597 95.526C91.9521 96.1099 92.1304 96.8599 92.1304 97.7753L92.1091 105.821H91.2343ZM106.819 106.145C105.731 106.145 104.792 105.896 104.002 105.399C103.221 104.902 102.616 104.192 102.189 103.269C101.762 102.346 101.549 101.25 101.549 99.9813C101.549 98.7052 101.759 97.6061 102.178 96.6831C102.605 95.76 103.21 95.054 103.992 94.5636C104.781 94.0661 105.724 93.8174 106.819 93.8174C107.921 93.8174 108.864 94.07 109.646 94.5744C110.428 95.0788 111.026 95.811 111.438 96.7696C111.858 97.7281 112.067 98.8852 112.067 100.241H111.107V99.938C111.065 98.258 110.674 96.9712 109.934 96.0775C109.201 95.1761 108.163 94.7258 106.819 94.7258C105.453 94.7258 104.394 95.1869 103.64 96.1099C102.886 97.0252 102.509 98.3159 102.509 99.9813C102.509 101.647 102.886 102.94 103.64 103.863C104.394 104.779 105.453 105.237 106.819 105.237C107.772 105.237 108.608 105.01 109.326 104.556C110.044 104.101 110.617 103.449 111.043 102.598L111.79 103.031C111.321 104.026 110.656 104.793 109.795 105.334C108.935 105.875 107.943 106.145 106.819 106.145ZM102.125 100.241V99.3324H111.513V100.241H102.125ZM119.545 105.821V90.2489H125.199C125.348 90.2489 125.501 90.2558 125.658 90.2705C125.814 90.2774 125.988 90.2991 126.18 90.3354C126.92 90.4505 127.56 90.7247 128.101 91.1572C128.648 91.5828 129.068 92.1235 129.359 92.7793C129.658 93.4281 129.807 94.1418 129.807 94.9204C129.807 96.0304 129.509 97.0036 128.911 97.8401C128.314 98.6767 127.503 99.2096 126.479 99.4406L126.308 99.592H120.441V105.821H119.545ZM129.167 105.821L126.138 99.4838L126.906 98.8999L130.234 105.821H129.167ZM120.441 98.6836H125.199C125.319 98.6836 125.462 98.6767 125.626 98.662C125.796 98.6473 125.967 98.6257 126.138 98.5971C126.727 98.482 127.222 98.2441 127.621 97.8834C128.026 97.5227 128.331 97.087 128.538 96.5749C128.744 96.0559 128.847 95.5044 128.847 94.9204C128.847 94.3365 128.744 93.7888 128.538 93.2767C128.331 92.7577 128.026 92.3182 127.621 91.9574C127.222 91.5967 126.727 91.3588 126.138 91.2437C125.967 91.2074 125.796 91.1858 125.626 91.1788C125.462 91.1642 125.319 91.1572 125.199 91.1572H120.441V98.6836ZM137.645 106.145C136.557 106.145 135.618 105.896 134.828 105.399C134.046 104.902 133.441 104.192 133.015 103.269C132.588 102.346 132.375 101.25 132.375 99.9813C132.375 98.7052 132.584 97.6061 133.004 96.6831C133.431 95.76 134.035 95.054 134.818 94.5636C135.607 94.0661 136.549 93.8174 137.645 93.8174C138.747 93.8174 139.689 94.07 140.472 94.5744C141.253 95.0788 141.851 95.811 142.264 96.7696C142.683 97.7281 142.893 98.8852 142.893 100.241H141.933V99.938C141.891 98.258 141.499 96.9712 140.76 96.0775C140.027 95.1761 138.989 94.7258 137.645 94.7258C136.279 94.7258 135.219 95.1869 134.466 96.1099C133.711 97.0252 133.335 98.3159 133.335 99.9813C133.335 101.647 133.711 102.94 134.466 103.863C135.219 104.779 136.279 105.237 137.645 105.237C138.597 105.237 139.433 105.01 140.152 104.556C140.869 104.101 141.442 103.449 141.869 102.598L142.616 103.031C142.147 104.026 141.481 104.793 140.621 105.334C139.76 105.875 138.768 106.145 137.645 106.145ZM132.951 100.241V99.3324H142.339V100.241H132.951ZM153.915 105.821V99.6352C153.915 98.7987 153.83 98.078 153.659 97.4725C153.496 96.8599 153.25 96.3548 152.923 95.9585C152.596 95.5546 152.197 95.2556 151.728 95.061C151.266 94.8663 150.736 94.769 150.138 94.769C149.434 94.769 148.834 94.8949 148.336 95.1475C147.845 95.3924 147.447 95.7314 147.141 96.164C146.835 96.5966 146.611 97.094 146.469 97.6563C146.327 98.2186 146.255 98.8134 146.255 99.4406L145.423 99.4622C145.423 98.1283 145.64 97.0546 146.074 96.2397C146.508 95.4178 147.081 94.8192 147.791 94.4446C148.51 94.07 149.293 93.8823 150.138 93.8823C150.722 93.8823 151.256 93.9649 151.739 94.131C152.229 94.2971 152.664 94.5381 153.04 94.8555C153.424 95.1653 153.748 95.5476 154.011 96.0018C154.275 96.456 154.473 96.975 154.608 97.559C154.744 98.136 154.811 98.7701 154.811 99.4622V105.821H153.915ZM145.359 105.821V94.1418H146.191V96.5209H146.255V105.821H145.359ZM163.969 105.821C163.393 105.95 162.824 105.998 162.263 105.961C161.701 105.933 161.2 105.799 160.758 105.561C160.317 105.316 159.987 104.949 159.766 104.458C159.596 104.076 159.5 103.69 159.478 103.301C159.457 102.905 159.446 102.454 159.446 101.949V90.8977H160.342V101.949C160.342 102.454 160.346 102.862 160.353 103.171C160.368 103.481 160.442 103.773 160.577 104.047C160.833 104.566 161.238 104.887 161.793 105.01C162.348 105.125 163.073 105.107 163.969 104.956V105.821ZM156.737 95.0502V94.1418H163.969V95.0502H156.737ZM166.741 91.633V90.2489H167.637V91.633H166.741ZM166.741 105.821V94.1418H167.637V105.821H166.741ZM179.824 105.821V99.6352C179.824 98.7987 179.738 98.078 179.568 97.4725C179.404 96.8599 179.158 96.3548 178.832 95.9585C178.504 95.5546 178.106 95.2556 177.637 95.061C177.174 94.8663 176.645 94.769 176.047 94.769C175.343 94.769 174.742 94.8949 174.244 95.1475C173.754 95.3924 173.355 95.7314 173.049 96.164C172.743 96.5966 172.519 97.094 172.377 97.6563C172.235 98.2186 172.164 98.8134 172.164 99.4406L171.332 99.4622C171.332 98.1283 171.548 97.0546 171.983 96.2397C172.416 95.4178 172.989 94.8192 173.7 94.4446C174.418 94.07 175.201 93.8823 176.047 93.8823C176.63 93.8823 177.164 93.9649 177.647 94.131C178.138 94.2971 178.572 94.5381 178.949 94.8555C179.333 95.1653 179.656 95.5476 179.92 96.0018C180.183 96.456 180.381 96.975 180.517 97.559C180.652 98.136 180.72 98.7701 180.72 99.4622V105.821H179.824ZM171.268 105.821V94.1418H172.1V96.5209H172.164V105.821H171.268ZM188.32 111.336C187.765 111.336 187.207 111.256 186.645 111.098C186.083 110.94 185.554 110.669 185.056 110.287C184.565 109.912 184.146 109.396 183.797 108.74L184.586 108.2C184.97 109 185.511 109.566 186.208 109.898C186.905 110.237 187.609 110.406 188.32 110.406C189.352 110.406 190.155 110.207 190.731 109.811C191.315 109.422 191.723 108.838 191.958 108.059C192.192 107.288 192.31 106.325 192.31 105.172V102.187H192.395V94.1418H193.227V105.172C193.227 105.525 193.22 105.868 193.206 106.199C193.192 106.531 193.163 106.859 193.121 107.183C193.007 108.128 192.758 108.907 192.374 109.519C191.997 110.132 191.475 110.586 190.806 110.882C190.137 111.184 189.309 111.336 188.32 111.336ZM188.299 106.145C187.21 106.145 186.293 105.875 185.546 105.334C184.807 104.786 184.245 104.047 183.861 103.117C183.477 102.18 183.285 101.128 183.285 99.9596C183.285 98.8134 183.474 97.7753 183.85 96.8453C184.227 95.9153 184.775 95.1799 185.493 94.6393C186.218 94.0916 187.097 93.8174 188.128 93.8174C189.202 93.8174 190.105 94.0839 190.838 94.6176C191.577 95.1436 192.136 95.872 192.512 96.802C192.89 97.725 193.078 98.7771 193.078 99.9596C193.078 101.121 192.89 102.17 192.512 103.106C192.143 104.036 191.603 104.776 190.891 105.323C190.18 105.871 189.316 106.145 188.299 106.145ZM188.299 105.237C189.202 105.237 189.956 105.006 190.56 104.545C191.172 104.084 191.631 103.456 191.936 102.663C192.243 101.863 192.395 100.961 192.395 99.9596C192.395 98.9431 192.239 98.0417 191.926 97.2562C191.62 96.4629 191.161 95.8434 190.55 95.3962C189.945 94.949 189.195 94.7258 188.299 94.7258C187.381 94.7258 186.621 94.9567 186.016 95.4178C185.418 95.872 184.974 96.4954 184.682 97.2886C184.391 98.0742 184.245 98.9648 184.245 99.9596C184.245 100.961 184.398 101.863 184.704 102.663C185.01 103.456 185.461 104.084 186.058 104.545C186.663 105.006 187.41 105.237 188.299 105.237ZM201.343 105.821V90.2489H202.197L208.726 104.718L215.19 90.2489H216.086V105.799H215.19V92.4332L209.216 105.821H208.213L202.239 92.4332V105.821H201.343ZM222.851 106.145C221.955 106.145 221.212 105.987 220.621 105.669C220.031 105.352 219.59 104.934 219.298 104.415C219.007 103.896 218.861 103.334 218.861 102.728C218.861 102.043 219.007 101.477 219.298 101.03C219.597 100.576 219.985 100.219 220.461 99.9596C220.938 99.7001 221.45 99.5124 221.997 99.3973C222.666 99.2606 223.381 99.1417 224.142 99.0405C224.91 98.9323 225.618 98.842 226.264 98.7701C226.912 98.6983 227.395 98.6404 227.715 98.5971L227.395 98.8134C227.431 97.4362 227.182 96.4127 226.649 95.7423C226.123 95.0649 225.191 94.7258 223.854 94.7258C222.887 94.7258 222.108 94.9459 221.517 95.3854C220.934 95.818 220.525 96.4846 220.29 97.386L219.309 97.1264C219.565 96.045 220.088 95.2232 220.877 94.6609C221.674 94.0986 222.68 93.8174 223.896 93.8174C224.963 93.8174 225.852 94.0375 226.563 94.477C227.275 94.9166 227.758 95.5113 228.014 96.2613C228.114 96.5494 228.185 96.8993 228.227 97.3103C228.27 97.7212 228.291 98.1213 228.291 98.5106V105.821H227.459V102.62L227.886 102.641C227.58 103.751 226.972 104.613 226.062 105.226C225.152 105.838 224.081 106.145 222.851 106.145ZM222.808 105.237C223.64 105.237 224.373 105.085 225.006 104.783C225.646 104.48 226.162 104.043 226.553 103.474C226.951 102.897 227.203 102.209 227.31 101.409C227.367 101.005 227.395 100.572 227.395 100.111C227.395 99.6499 227.395 99.3178 227.395 99.1162L227.865 99.4838C227.488 99.5201 226.966 99.5703 226.296 99.6352C225.635 99.6932 224.935 99.7719 224.195 99.8731C223.456 99.9666 222.787 100.089 222.189 100.241C221.841 100.327 221.482 100.464 221.112 100.652C220.742 100.839 220.429 101.102 220.173 101.441C219.925 101.78 219.8 102.216 219.8 102.75C219.8 103.124 219.893 103.503 220.077 103.885C220.262 104.267 220.572 104.588 221.005 104.847C221.446 105.107 222.048 105.237 222.808 105.237ZM235.866 106.145C234.778 106.145 233.86 105.875 233.113 105.334C232.373 104.786 231.812 104.047 231.428 103.117C231.044 102.18 230.852 101.128 230.852 99.9596C230.852 98.8134 231.04 97.7753 231.417 96.8453C231.794 95.9153 232.341 95.1799 233.06 94.6393C233.785 94.0916 234.664 93.8174 235.695 93.8174C236.769 93.8174 237.672 94.0839 238.405 94.6176C239.145 95.1436 239.702 95.872 240.08 96.802C240.457 97.725 240.645 98.7771 240.645 99.9596C240.645 101.121 240.457 102.17 240.08 103.106C239.71 104.036 239.169 104.776 238.458 105.323C237.747 105.871 236.883 106.145 235.866 106.145ZM235.866 105.237C236.769 105.237 237.523 105.006 238.127 104.545C238.739 104.084 239.198 103.456 239.503 102.663C239.809 101.863 239.962 100.961 239.962 99.9596C239.962 98.9431 239.806 98.0417 239.493 97.2562C239.187 96.4629 238.729 95.8434 238.117 95.3962C237.512 94.949 236.762 94.7258 235.866 94.7258C234.948 94.7258 234.187 94.9567 233.583 95.4178C232.985 95.872 232.541 96.4954 232.249 97.2886C231.957 98.0742 231.812 98.9648 231.812 99.9596C231.812 100.961 231.965 101.863 232.271 102.663C232.576 103.456 233.028 104.084 233.625 104.545C234.23 105.006 234.976 105.237 235.866 105.237ZM239.962 105.821V96.629H239.898V90.2489H240.794V105.821H239.962ZM248.842 106.145C247.754 106.145 246.815 105.896 246.025 105.399C245.243 104.902 244.639 104.192 244.212 103.269C243.785 102.346 243.572 101.25 243.572 99.9813C243.572 98.7052 243.781 97.6061 244.201 96.6831C244.628 95.76 245.232 95.054 246.015 94.5636C246.804 94.0661 247.746 93.8174 248.842 93.8174C249.944 93.8174 250.886 94.07 251.669 94.5744C252.451 95.0788 253.048 95.811 253.461 96.7696C253.88 97.7281 254.09 98.8852 254.09 100.241H253.13V99.938C253.088 98.258 252.696 96.9712 251.957 96.0775C251.224 95.1761 250.186 94.7258 248.842 94.7258C247.476 94.7258 246.416 95.1869 245.663 96.1099C244.908 97.0252 244.532 98.3159 244.532 99.9813C244.532 101.647 244.908 102.94 245.663 103.863C246.416 104.779 247.476 105.237 248.842 105.237C249.794 105.237 250.63 105.01 251.349 104.556C252.067 104.101 252.64 103.449 253.066 102.598L253.813 103.031C253.344 104.026 252.678 104.793 251.818 105.334C250.957 105.875 249.965 106.145 248.842 106.145ZM244.148 100.241V99.3324H253.536V100.241H244.148ZM266.667 106.145C265.628 106.145 264.693 105.976 263.861 105.637C263.036 105.291 262.35 104.804 261.802 104.177C261.262 103.55 260.899 102.808 260.714 101.949L261.61 101.776C261.887 102.843 262.478 103.687 263.381 104.307C264.284 104.927 265.379 105.237 266.667 105.237C267.563 105.237 268.345 105.092 269.013 104.804C269.682 104.516 270.201 104.112 270.571 103.593C270.941 103.067 271.126 102.454 271.126 101.755C271.126 101.229 271.03 100.788 270.838 100.435C270.646 100.082 270.4 99.7974 270.102 99.5812C269.81 99.3579 269.504 99.181 269.184 99.0513C268.864 98.9215 268.58 98.8203 268.331 98.7485L264.49 97.5806C263.935 97.4145 263.455 97.2129 263.05 96.975C262.652 96.7371 262.325 96.4668 262.069 96.164C261.813 95.8612 261.621 95.5298 261.492 95.1691C261.371 94.8084 261.311 94.423 261.311 94.0121C261.311 93.2188 261.521 92.5159 261.941 91.9034C262.367 91.2831 262.958 90.8004 263.711 90.4543C264.465 90.1013 265.337 89.9244 266.325 89.9244C267.328 89.9244 268.228 90.1121 269.024 90.4868C269.82 90.8614 270.471 91.3913 270.976 92.0764C271.488 92.7538 271.808 93.5509 271.937 94.4662L271.04 94.6393C270.941 93.8823 270.678 93.2188 270.251 92.6495C269.824 92.0725 269.273 91.6261 268.597 91.3086C267.922 90.9911 267.164 90.8328 266.325 90.8328C265.521 90.8328 264.814 90.9734 264.202 91.2545C263.598 91.5357 263.125 91.9142 262.783 92.39C262.442 92.8658 262.271 93.3995 262.271 93.9904C262.271 94.6107 262.435 95.1081 262.762 95.4827C263.097 95.8504 263.502 96.1385 263.978 96.3478C264.454 96.5494 264.91 96.7155 265.344 96.8453L268.523 97.8185C268.793 97.8981 269.124 98.017 269.515 98.1754C269.906 98.3268 270.29 98.5469 270.667 98.835C271.051 99.1231 271.367 99.5055 271.616 99.9813C271.872 100.45 272.001 101.041 272.001 101.755C272.001 102.425 271.876 103.031 271.627 103.571C271.378 104.112 271.019 104.573 270.55 104.956C270.08 105.338 269.519 105.63 268.864 105.832C268.21 106.041 267.477 106.145 266.667 106.145ZM274.771 91.633V90.2489H275.667V91.633H274.771ZM274.771 105.821V94.1418H275.667V105.821H274.771ZM292.975 105.821L292.996 97.7753C292.996 96.802 292.715 96.0381 292.153 95.4827C291.591 94.9204 290.897 94.6393 290.073 94.6393C289.617 94.6393 289.155 94.7435 288.686 94.9529C288.223 95.1622 287.833 95.5152 287.513 96.0126C287.199 96.51 287.043 97.1913 287.043 98.0564H286.254C286.218 97.1983 286.363 96.4521 286.691 95.818C287.025 95.1838 287.491 94.6933 288.089 94.3473C288.686 93.9943 289.369 93.8174 290.137 93.8174C291.225 93.8174 292.121 94.1634 292.825 94.8555C293.536 95.5476 293.892 96.4992 293.892 97.7104L293.871 105.821H292.975ZM279.298 105.821V94.1418H280.13V96.5209H280.194V105.821H279.298ZM286.147 105.821L286.168 97.9266C286.168 96.9171 285.891 96.1169 285.336 95.526C284.788 94.9351 284.077 94.6393 283.203 94.6393C282.307 94.6393 281.581 94.949 281.026 95.5692C280.472 96.1895 280.194 97.0183 280.194 98.0564L279.405 97.7104C279.405 96.9604 279.572 96.2938 279.906 95.7098C280.24 95.1189 280.699 94.657 281.282 94.3257C281.872 93.9866 282.548 93.8174 283.309 93.8174C283.956 93.8174 284.564 93.958 285.134 94.2391C285.702 94.5133 286.161 94.942 286.51 95.526C286.865 96.1099 287.043 96.8599 287.043 97.7753L287.022 105.821H286.147ZM302.03 106.145C301.014 106.145 300.15 105.871 299.438 105.323C298.727 104.776 298.183 104.036 297.806 103.106C297.436 102.17 297.251 101.121 297.251 99.9596C297.251 98.7771 297.44 97.725 297.816 96.802C298.193 95.872 298.748 95.1436 299.481 94.6176C300.22 94.0839 301.127 93.8174 302.201 93.8174C303.233 93.8174 304.107 94.0916 304.825 94.6393C305.551 95.1799 306.102 95.9153 306.479 96.8453C306.856 97.7753 307.044 98.8134 307.044 99.9596C307.044 101.128 306.852 102.18 306.468 103.117C306.084 104.047 305.519 104.786 304.772 105.334C304.033 105.875 303.118 106.145 302.03 106.145ZM297.102 111.011V94.1418H297.934V103.334H297.998V111.011H297.102ZM302.03 105.237C302.919 105.237 303.662 105.006 304.26 104.545C304.865 104.084 305.32 103.456 305.625 102.663C305.932 101.863 306.084 100.961 306.084 99.9596C306.084 98.9648 305.935 98.0742 305.636 97.2886C305.345 96.4954 304.9 95.872 304.302 95.4178C303.705 94.9567 302.948 94.7258 302.03 94.7258C301.134 94.7258 300.38 94.949 299.769 95.3962C299.164 95.8434 298.706 96.4629 298.392 97.2562C298.087 98.0417 297.934 98.9431 297.934 99.9596C297.934 100.961 298.087 101.863 298.392 102.663C298.699 103.456 299.154 104.084 299.758 104.545C300.37 105.006 301.127 105.237 302.03 105.237ZM310.035 105.821V89.9244H310.931V105.821H310.035ZM319.191 106.145C318.103 106.145 317.164 105.896 316.375 105.399C315.592 104.902 314.988 104.192 314.561 103.269C314.135 102.346 313.921 101.25 313.921 99.9813C313.921 98.7052 314.131 97.6061 314.551 96.6831C314.977 95.76 315.582 95.054 316.364 94.5636C317.154 94.0661 318.096 93.8174 319.191 93.8174C320.294 93.8174 321.236 94.07 322.018 94.5744C322.801 95.0788 323.398 95.811 323.81 96.7696C324.23 97.7281 324.44 98.8852 324.44 100.241H323.48V99.938C323.437 98.258 323.046 96.9712 322.306 96.0775C321.574 95.1761 320.535 94.7258 319.191 94.7258C317.826 94.7258 316.766 95.1869 316.012 96.1099C315.258 97.0252 314.881 98.3159 314.881 99.9813C314.881 101.647 315.258 102.94 316.012 103.863C316.766 104.779 317.826 105.237 319.191 105.237C320.144 105.237 320.98 105.01 321.698 104.556C322.417 104.101 322.989 103.449 323.416 102.598L324.162 103.031C323.693 104.026 323.028 104.793 322.168 105.334C321.307 105.875 320.315 106.145 319.191 106.145ZM314.497 100.241V99.3324H323.885V100.241H314.497Z" fill="#413091"/>
</svg>
